<?xml version="1.0" encoding="UTF-8"?>
<svg id="logo" xmlns="http://www.w3.org/2000/svg" viewBox="0 0 1000 1000">
  <defs>
    <style>
      .cls-1 {
        fill: #cd2026;
      }

      .cls-2 {
        fill: #f9f9f9;
      }

      .cls-3 {
        fill: #dba328;
      }

      .cls-4 {
        fill: #112e51;
      }
    </style>
  </defs>
  <g>
    <path class="cls-4" d="M787.62,470h-80.68c1.57,10.1,2.39,20.46,2.39,31,0,21.27-3.32,41.77-9.48,61-25.78,80.63-101.33,139-190.52,139s-164.73-58.37-190.52-139c-6.16-19.23-9.48-39.73-9.48-61,0-10.54.82-20.9,2.39-31h-80.68c-1.13,10.18-1.71,20.52-1.71,31,0,20.95,2.3,41.37,6.67,61,27.84,125.31,139.64,219,273.33,219s245.49-93.69,273.33-219c4.37-19.63,6.67-40.05,6.67-61,0-10.48-.58-20.82-1.71-31Z"/>
    <g>
      <path class="cls-4" d="M318.96,562.15H126.48l79.5-46-79.5-46h185.39c-1.57,10.1-2.39,20.46-2.39,31,0,21.27,3.32,41.77,9.48,61Z"/>
      <path class="cls-4" d="M892.48,470.15l-79.5,46,79.5,46h-192.48c6.16-19.23,9.48-39.73,9.48-61,0-10.54-.82-20.9-2.39-31h185.39Z"/>
    </g>
    <polygon class="cls-3" points="289.56 540.82 268.97 525.88 248.4 540.84 256.25 516.64 235.66 501.7 261.1 501.68 268.95 477.48 276.82 501.68 302.26 501.66 281.69 516.63 289.56 540.82"/>
    <polygon class="cls-3" points="776.63 540.04 756.04 525.09 735.46 540.06 743.31 515.86 722.72 500.91 748.16 500.9 756.01 476.7 763.89 500.89 789.33 500.88 768.75 515.85 776.63 540.04"/>
  </g>
  <g>
    <path class="cls-4" d="M718.99,710.66c-56,56-130.46,86.84-209.66,86.84s-153.65-30.84-209.65-86.84c-36.17-36.18-61.86-80.06-75.5-127.95h-7.27c13.82,49.77,40.3,95.38,77.82,132.9,57.32,57.32,133.54,88.89,214.6,88.89s157.29-31.57,214.61-88.89c37.51-37.52,63.99-83.13,77.81-132.9h-7.27c-13.64,47.89-39.32,91.77-75.49,127.95Z"/>
    <path class="cls-4" d="M299.68,291.34c56-56,130.46-86.84,209.65-86.84s153.66,30.84,209.66,86.84c43.25,43.25,71.47,97.51,82.09,156.46h7.11c-10.69-60.82-39.67-116.82-84.25-161.41-57.32-57.32-133.54-88.89-214.61-88.89s-157.28,31.57-214.6,88.89c-44.58,44.58-73.56,100.58-84.26,161.41h7.11c10.62-58.95,38.85-113.21,82.1-156.46Z"/>
  </g>
  <g>
    <path class="cls-4" d="M308.96,417.63l-3.4-2.13,2.06-4.76-27.21-22.4-3.92,4.53-3.33-2.09,9.83-15.66,28.01,8.34,5.14,2.01-4.14-3.6-20-21.1,9.89-15.76,3.33,2.09-2.59,5.84,32.29,14.25,3.37-3.83,3.4,2.13-10.29,16.4-3.4-2.13,1.92-4.54-23.19-11.33-9.94-4.78,6.41,6.2,23.5,24.95-3.25,5.19-31.74-8.51-10.25-3.18,8.88,6.19,20.49,15.69,3.77-4.52,3.4,2.13-9.02,14.37Z"/>
    <path class="cls-4" d="M340.12,368.62l-2.93-2.75,2.01-3.3-19.2-37.75,6.48-6.81,38.65,17.31,3.4-2.39,2.91,2.77-13.1,13.78-2.91-2.77,2.7-4.03-6.69-3.33-10.96,11.53,3.77,6.45,3.9-2.96,2.91,2.77-10.92,11.48ZM328.13,329.8l9.94,16.97,9.09-9.55-17.67-8.84-3.81-2.21,2.45,3.63Z"/>
    <path class="cls-4" d="M387.77,325.23c-2.79,2.04-5.57,3.39-8.34,4.05-2.77.66-5.47.71-8.09.15-2.62-.56-5.13-1.7-7.51-3.42-2.38-1.72-4.57-3.94-6.56-6.67-2.04-2.79-3.42-5.67-4.13-8.65-.71-2.97-.83-5.88-.35-8.72.48-2.84,1.53-5.53,3.15-8.07s3.75-4.78,6.39-6.7c1.14-.83,2.26-1.55,3.39-2.17,1.12-.61,2.19-1.17,3.2-1.65,1.01-.49,1.95-.92,2.81-1.29s1.59-.72,2.18-1.03l6.34,9.81-4.85,3.54-5.97-5.18c-.3-.07-.63-.11-1.01-.12-.38,0-.79.06-1.24.2-.45.13-.95.35-1.51.63-.56.29-1.19.69-1.88,1.2-1.36.99-2.39,2.2-3.09,3.62-.7,1.42-1.02,3.02-.97,4.81.06,1.79.52,3.74,1.38,5.87.87,2.13,2.18,4.39,3.94,6.81,1.52,2.08,3.17,3.95,4.94,5.61,1.77,1.66,3.57,2.95,5.39,3.88,1.83.93,3.64,1.41,5.44,1.45,1.8.04,3.48-.51,5.06-1.67.79-.58,1.43-1.12,1.94-1.62.5-.5.91-.97,1.22-1.42.31-.44.52-.86.65-1.25.12-.39.21-.76.24-1.1l-1.67-6.8,4.33-2.81,5.31,8.46c-.64.54-1.24,1.17-1.79,1.87-.55.71-1.18,1.48-1.88,2.34-.71.86-1.56,1.79-2.57,2.81-1.01,1.02-2.3,2.1-3.88,3.25Z"/>
    <path class="cls-4" d="M419.22,306.93c-3.07,1.47-5.96,2.25-8.68,2.35-2.72.1-5.24-.39-7.55-1.47s-4.42-2.71-6.33-4.9c-1.91-2.18-3.58-4.83-5.03-7.95-1.49-3.21-2.38-6.32-2.69-9.35s-.06-5.85.74-8.47c.8-2.62,2.12-4.97,3.98-7.05,1.86-2.08,4.2-3.77,7.04-5.09,3.12-1.45,6.03-2.22,8.73-2.32,2.7-.1,5.19.4,7.47,1.49,2.28,1.09,4.36,2.73,6.22,4.91,1.86,2.18,3.52,4.83,4.96,7.95,1.49,3.21,2.38,6.32,2.69,9.35s.06,5.84-.72,8.44c-.78,2.6-2.09,4.94-3.92,7.02s-4.13,3.77-6.93,5.09ZM401.95,268.86c-1.42.66-2.53,1.61-3.34,2.86-.81,1.25-1.28,2.79-1.41,4.61-.13,1.83.09,3.94.68,6.34s1.56,5.07,2.92,8.01c1.37,2.96,2.76,5.4,4.17,7.32s2.82,3.37,4.25,4.36c1.43.99,2.85,1.53,4.28,1.63s2.86-.18,4.29-.84c1.42-.66,2.52-1.61,3.32-2.87.8-1.25,1.26-2.79,1.39-4.62.13-1.83-.09-3.93-.67-6.33-.58-2.39-1.55-5.05-2.92-8-1.36-2.92-2.74-5.34-4.15-7.26s-2.82-3.38-4.24-4.36c-1.42-.99-2.84-1.54-4.28-1.67-1.43-.12-2.87.15-4.3.82Z"/>
    <path class="cls-4" d="M438.65,297.06l-.85-3.92,5.13-1.92-7.39-34.16-5.49.26-.83-3.84,13.66-2.96,23.58,21.55,4.35,5.41-5.8-26.8-5.78.32-.83-3.84,15.95-3.45.83,3.84-4.88,1.98,8.41,38.86-6.53,1.41-25.05-23.23-5.38-6.45,6.48,29.92,6.04-.47.85,3.92-16.46,3.56Z"/>
    <path class="cls-4" d="M523.21,288.94c-3.45-.23-6.45-.98-9-2.25-2.55-1.27-4.65-2.97-6.3-5.08s-2.84-4.6-3.56-7.44c-.72-2.85-.97-5.96-.75-9.33.23-3.45,1.02-6.54,2.39-9.28,1.36-2.74,3.14-5.04,5.33-6.92,2.19-1.87,4.72-3.26,7.6-4.17s5.94-1.25,9.2-1.04c1.4.09,2.73.26,3.99.51,1.26.25,2.43.51,3.51.79,1.09.28,2.08.55,2.99.81.9.26,1.68.47,2.34.61l-1.44,11.59-5.99-.4-1.25-7.8c-.18-.25-.41-.49-.7-.74s-.64-.46-1.07-.64c-.43-.18-.95-.35-1.57-.49s-1.36-.24-2.21-.29c-1.68-.11-3.24.15-4.69.79-1.45.64-2.73,1.66-3.83,3.06-1.1,1.41-2,3.2-2.7,5.39-.7,2.18-1.15,4.77-1.35,7.75-.17,2.57-.11,5.06.18,7.47s.84,4.55,1.65,6.44c.81,1.88,1.88,3.42,3.23,4.6,1.35,1.19,3,1.84,4.95,1.97.97.06,1.82.07,2.52,0,.71-.06,1.32-.16,1.84-.3.52-.14.95-.32,1.3-.55.35-.22.64-.45.9-.69l3.09-6.29,5.13.63-1.36,9.89c-.84,0-1.7.1-2.57.29-.88.19-1.86.38-2.95.58s-2.35.37-3.78.5-3.12.13-5.06,0Z"/>
    <path class="cls-4" d="M559.22,294.98c-3.3-.82-6.03-2.06-8.19-3.71-2.16-1.65-3.79-3.63-4.89-5.94-1.1-2.3-1.68-4.9-1.77-7.8-.08-2.9.31-6.01,1.18-9.34.89-3.42,2.18-6.39,3.87-8.92,1.69-2.53,3.67-4.55,5.96-6.06,2.28-1.51,4.8-2.48,7.55-2.91,2.75-.42,5.64-.24,8.67.55,3.33.87,6.06,2.12,8.21,3.76,2.15,1.64,3.75,3.61,4.82,5.9,1.07,2.3,1.62,4.88,1.67,7.75.05,2.87-.36,5.97-1.23,9.29-.89,3.42-2.18,6.39-3.87,8.92-1.69,2.53-3.66,4.54-5.92,6.05-2.26,1.51-4.75,2.48-7.48,2.92s-5.59.28-8.58-.48ZM570.11,254.61c-1.51-.39-2.98-.37-4.4.08-1.42.45-2.76,1.33-4.02,2.66-1.26,1.33-2.43,3.1-3.51,5.32-1.07,2.22-2.02,4.9-2.84,8.04-.82,3.16-1.3,5.92-1.44,8.3-.13,2.38.03,4.4.51,6.07.47,1.67,1.23,2.99,2.26,3.98,1.03.99,2.32,1.68,3.85,2.08,1.51.39,2.97.36,4.38-.1,1.41-.46,2.75-1.35,4.01-2.68,1.26-1.33,2.43-3.09,3.5-5.31,1.07-2.21,2.02-4.89,2.83-8.03.81-3.12,1.29-5.87,1.42-8.24.14-2.38-.03-4.4-.49-6.06s-1.21-3-2.24-4.01c-1.03-1-2.31-1.71-3.84-2.11Z"/>
    <path class="cls-4" d="M599.63,309.9c-5.48-2.71-8.9-6.1-10.27-10.17-1.36-4.07-.62-9,2.24-14.78l9.48-19.17-3.26-2.66,1.74-3.52,16.83,8.32-1.74,3.52-4.89-1.41-9.95,20.12c-1.01,2.05-1.71,3.94-2.08,5.67-.38,1.73-.46,3.28-.25,4.65.21,1.37.7,2.56,1.47,3.57.77,1.01,1.79,1.83,3.05,2.46,1.61.8,3.15,1.16,4.61,1.09s2.83-.48,4.12-1.22c1.28-.74,2.47-1.77,3.56-3.09,1.09-1.32,2.06-2.84,2.91-4.56l9.93-20.09-4.04-3.01,1.74-3.52,13.39,6.62-1.74,3.52-3.99-.99-9.84,19.91c-1.4,2.84-2.99,5.09-4.76,6.75-1.77,1.66-3.65,2.82-5.64,3.47s-4.06.83-6.2.55c-2.15-.29-4.29-.96-6.42-2.01Z"/>
    <path class="cls-4" d="M618.81,318.85l2.48-3.16,4.75,2.72,21.57-27.5-3.7-4.06,2.42-3.09,11,8.62-1.52,31.9-1.39,6.8,16.92-21.58-3.94-4.24,2.42-3.09,12.84,10.07-2.42,3.09-4.64-2.49-24.53,31.29-5.26-4.12,1.88-34.12,1.53-8.26-18.89,24.09,4.22,4.35-2.48,3.16-13.26-10.39Z"/>
    <path class="cls-4" d="M659.9,353.35l3.02-2.65,5.93,5.51,26.67-23.4-5.81-5.82-10.83,6.54-3.59-4.1,13.55-10.72,25.82,29.42-12.37,12.07-3.61-4.12,7.93-9.84-4.88-6.36-26.69,23.42,5.05,6.95-3.02,2.65-17.16-19.55Z"/>
    <path class="cls-4" d="M686.08,385.29l3.38-2.16,4.27,5.17,10.7-6.82,11.74-22.95-1.16-3.5,3.31-2.11,9.78,15.34-3.31,2.11-2.97-2.97-8.6,14.62-2.53,3.11,3.94-.63,16.78-2.08-1.83-4.56,3.31-2.11,7.97,12.5-3.31,2.11-3.02-3.04-24.73,2.46-10.75,6.85,3.06,6.32-3.38,2.16-12.63-19.81Z"/>
  </g>
  <g>
    <path class="cls-2" d="M398.44,738.08l.97-2.22,2.83.72,8.41-19.19-2.39-1.64.95-2.16,17.72,7.77-2.08,5.75-2.75-1.21.19-3.64-6.27-3.13-3.83,8.73,4.21,1.77,1.67-2.49,2.79,1.22-3.46,7.91-2.79-1.22.7-2.92-4.15-1.92-3.86,8.81,7.87,3.01,3.84-3.38,2.48,1.83-3.77,6.06-19.3-8.46Z"/>
    <path class="cls-2" d="M430.62,751.27c-1.04-.33-1.97-.71-2.8-1.15-.83-.43-1.56-.85-2.21-1.26-.64-.41-1.19-.78-1.64-1.1-.45-.32-.81-.54-1.08-.65l2.32-6.25,3.01.96-.59,4.39c.19.42.58.87,1.17,1.37s1.38.9,2.36,1.22c.78.25,1.47.37,2.08.36.61,0,1.13-.12,1.58-.34.45-.22.81-.53,1.11-.92s.52-.85.68-1.36c.19-.59.23-1.17.13-1.72-.11-.56-.33-1.12-.68-1.69s-.8-1.16-1.37-1.77-1.22-1.26-1.96-1.96c-.57-.53-1.16-1.13-1.77-1.82s-1.13-1.46-1.56-2.31c-.43-.85-.72-1.78-.86-2.79-.15-1.01-.03-2.08.33-3.23.29-.91.76-1.72,1.39-2.42.63-.69,1.42-1.23,2.35-1.6.93-.37,2-.56,3.21-.57,1.21,0,2.53.22,3.97.68.77.25,1.51.54,2.21.89.7.35,1.35.69,1.94,1.04.59.34,1.11.66,1.55.95.44.29.78.5,1.03.62l-2.07,5.71-2.95-.94.53-4.02c-.06-.13-.17-.28-.34-.45s-.38-.35-.63-.52-.52-.34-.83-.5c-.31-.16-.63-.29-.96-.4-.69-.22-1.31-.34-1.85-.34-.54,0-1.01.08-1.4.26s-.73.44-.99.77-.47.73-.62,1.19c-.21.65-.25,1.27-.11,1.86.13.59.39,1.18.77,1.76.39.59.87,1.18,1.46,1.8.59.61,1.24,1.27,1.96,1.96.62.6,1.24,1.26,1.86,1.97.62.71,1.15,1.47,1.6,2.27s.74,1.66.9,2.56c.16.9.07,1.84-.24,2.84-.28.88-.74,1.73-1.38,2.53-.64.8-1.46,1.46-2.46,1.96-1,.5-2.17.8-3.53.88-1.36.08-2.89-.15-4.61-.7Z"/>
    <path class="cls-2" d="M447.86,755.82l.5-2.36,4.83.51,4.38-20.83-4.88-.7-2.85,7.04-3.2-.67,2.65-10.02,22.98,4.83-1.6,10.24-3.22-.68.26-7.58-4.63-1.3-4.39,20.85,4.93,1.52-.5,2.36-15.28-3.21Z"/>
    <path class="cls-2" d="M474.87,761c-.41-.05-.79-.17-1.14-.34s-.66-.4-.9-.68c-.25-.28-.43-.6-.55-.96-.12-.36-.15-.76-.09-1.19.06-.48.21-.9.45-1.28.24-.38.54-.7.9-.96.36-.26.77-.45,1.22-.56s.92-.14,1.41-.08c.57.07,1.04.21,1.42.41.38.2.67.45.89.74.22.29.36.61.43.96.07.35.08.72.03,1.1-.06.5-.21.94-.45,1.32-.23.38-.53.7-.88.95-.36.25-.77.42-1.24.52-.47.1-.96.11-1.49.05Z"/>
    <path class="cls-2" d="M543.44,761.02l-.32-2.21,3.88-1.02-2.08-14.35c-.21.1-.49.22-.85.34-.35.13-.72.26-1.11.38-.38.13-.76.24-1.13.34-.37.1-.68.18-.92.22l-.85-2.67c.65-.24,1.29-.53,1.92-.88s1.23-.73,1.8-1.15c.57-.41,1.11-.84,1.6-1.29s.93-.88,1.3-1.3h.02s2.93.09,2.93.09l2.83,19.47,3.72-.08.32,2.21-13.06,1.9Z"/>
    <path class="cls-2" d="M558.88,751.91c-.3-1.31-.17-2.64.38-3.99.55-1.34,1.61-2.62,3.19-3.82-.64-.26-1.25-.57-1.82-.92-.58-.35-1.11-.77-1.58-1.25s-.9-1.05-1.26-1.69c-.36-.64-.64-1.38-.83-2.21-.25-1.11-.23-2.13.07-3.08.3-.94.78-1.79,1.44-2.53.66-.74,1.46-1.36,2.41-1.87.94-.51,1.93-.88,2.97-1.12,1.36-.31,2.57-.43,3.64-.38,1.07.06,1.98.27,2.76.64.77.37,1.4.87,1.88,1.5.48.64.82,1.38,1.01,2.22.28,1.22.23,2.47-.14,3.75-.37,1.27-1.16,2.5-2.37,3.68.83.26,1.63.55,2.42.88s1.5.73,2.15,1.2c.65.47,1.2,1.03,1.67,1.68.47.65.8,1.42,1,2.31.27,1.17.25,2.27-.04,3.32-.29,1.05-.81,2-1.55,2.85-.74.85-1.68,1.59-2.81,2.21-1.13.62-2.39,1.08-3.8,1.4-1.13.26-2.28.38-3.44.38-1.16,0-2.24-.18-3.23-.53-.99-.35-1.85-.9-2.58-1.66-.73-.75-1.23-1.75-1.52-2.98ZM561.3,735.8c.15.64.43,1.19.87,1.63.43.45.96.84,1.58,1.16.62.33,1.32.61,2.1.86.78.24,1.58.48,2.41.71.54-.74.89-1.53,1.06-2.37.16-.84.16-1.65-.02-2.43-.35-1.53-.97-2.63-1.86-3.3-.89-.67-1.98-.86-3.26-.57-.5.11-.96.3-1.37.54-.41.25-.75.56-1.02.93-.26.37-.45.79-.54,1.26-.1.47-.08,1,.05,1.57ZM572.81,749.56c-.17-.75-.52-1.37-1.04-1.84s-1.16-.88-1.91-1.21c-.75-.33-1.58-.61-2.48-.85-.9-.24-1.82-.5-2.75-.78-.56.69-.97,1.47-1.22,2.34-.25.87-.27,1.79-.04,2.78.18.81.44,1.54.78,2.17.34.64.76,1.16,1.27,1.57.51.41,1.1.68,1.78.82.68.14,1.45.11,2.31-.08.53-.12,1.02-.32,1.48-.61s.85-.64,1.17-1.07c.32-.43.54-.91.68-1.46.13-.55.13-1.14-.02-1.78Z"/>
    <path class="cls-2" d="M583.36,750.87c1.24-1.37,2.35-2.78,3.31-4.23.97-1.45,1.75-2.88,2.35-4.27s.98-2.74,1.16-4.02c.18-1.28.09-2.46-.25-3.51-.17-.54-.42-1-.75-1.38-.32-.39-.71-.69-1.15-.91-.44-.22-.93-.34-1.46-.36-.53-.02-1.1.06-1.7.26-.66.21-1.23.49-1.73.82-.5.33-.92.69-1.29,1.06-.37.37-.67.74-.92,1.11-.25.37-.47.7-.66.99l-2.02-1.58c.18-.51.48-1.08.9-1.71.42-.63.95-1.25,1.58-1.86.62-.61,1.35-1.18,2.16-1.71s1.7-.94,2.66-1.26c1.27-.41,2.42-.61,3.45-.58,1.03.03,1.93.22,2.71.58s1.43.86,1.95,1.5.92,1.36,1.18,2.16c.38,1.15.46,2.39.25,3.72-.21,1.33-.63,2.7-1.27,4.1s-1.44,2.81-2.41,4.22c-.97,1.41-2.04,2.78-3.2,4.11l9.03-4.01.48-2.82,2.51-.29,1.01,6.25-16.47,5.39-1.41-1.78Z"/>
    <path class="cls-2" d="M603.74,739.13c-.54-1.24-.66-2.57-.38-3.99.29-1.42,1.1-2.87,2.42-4.34-.67-.14-1.33-.33-1.96-.57-.63-.23-1.23-.55-1.79-.94-.56-.39-1.08-.86-1.55-1.42s-.88-1.23-1.22-2.02c-.45-1.04-.62-2.05-.51-3.04s.43-1.9.94-2.75c.51-.85,1.18-1.61,2.02-2.29.83-.68,1.74-1.23,2.71-1.65,1.28-.56,2.45-.91,3.5-1.05,1.06-.14,2-.1,2.83.11s1.54.59,2.13,1.12c.59.54,1.06,1.2,1.41,2,.5,1.15.69,2.38.56,3.71-.13,1.32-.68,2.67-1.65,4.05.86.1,1.71.24,2.54.41.83.17,1.61.43,2.33.78.72.34,1.38.79,1.96,1.34s1.05,1.25,1.42,2.09c.48,1.1.67,2.19.58,3.27-.09,1.08-.42,2.11-1,3.09-.57.98-1.35,1.87-2.35,2.69-.99.82-2.15,1.51-3.47,2.09-1.06.46-2.17.8-3.31,1.02-1.14.22-2.23.24-3.27.08s-1.99-.54-2.85-1.15-1.54-1.49-2.04-2.65ZM603.11,722.86c.26.6.65,1.08,1.16,1.44.51.36,1.1.64,1.77.85.67.21,1.41.36,2.22.45s1.64.18,2.51.25c.4-.82.59-1.67.6-2.52,0-.86-.15-1.65-.47-2.38-.63-1.44-1.44-2.4-2.44-2.9-1-.49-2.1-.47-3.3.05-.47.21-.89.47-1.25.79-.36.32-.63.69-.83,1.1-.19.41-.29.86-.3,1.34,0,.48.11.99.34,1.53ZM616.98,734.23c-.31-.71-.76-1.25-1.37-1.62-.6-.37-1.3-.65-2.1-.83-.8-.18-1.67-.31-2.6-.38-.93-.07-1.88-.15-2.84-.26-.42.79-.68,1.63-.77,2.53-.09.9.07,1.81.47,2.74.33.76.72,1.43,1.17,1.99s.96,1,1.54,1.31,1.21.46,1.9.47c.69.01,1.45-.16,2.25-.51.49-.21.94-.51,1.35-.87s.72-.79.95-1.27.36-1,.39-1.56c.03-.56-.09-1.14-.35-1.75Z"/>
  </g>
  <g>
    <path class="cls-4" d="M537.69,502.94c39.3-21.08,87.72-31.41,146.23-18.88-8.52-88.7-83.25-158.06-174.18-158.06-67.24,0-125.6,37.92-154.91,93.54,111.9-10.83,164.12,46.85,182.87,83.39Z"/>
    <path class="cls-1" d="M413.32,647.05c1.55,1.02,3.11,2.02,4.69,3,41.02-44.83,136.77-127.38,251.33-77.17,4.64-10.3,8.32-21.12,10.92-32.36-157.16-30.83-237.06,59.83-266.94,106.53Z"/>
    <path class="cls-1" d="M532.71,505.69c-23.73-25.53-80.96-59.92-190.48-55.46-4.86,16.07-7.49,33.11-7.49,50.77,0,60,30.2,112.93,76.22,144.46,17.98-37.13,57.05-102.86,121.76-139.77Z"/>
    <path class="cls-1" d="M420.98,651.84c26.02,15.35,56.36,24.16,88.76,24.16,52.71,0,99.97-23.3,132.05-60.17-105.74-41.37-183.61,4.67-220.81,36.01Z"/>
  </g>
</svg>