<?xml version="1.0" encoding="UTF-8"?>
<svg id="logo-mark" xmlns="http://www.w3.org/2000/svg" viewBox="0 0 1000 1000">
  <defs>
    <style>
      .cls-1 {
        fill: #cd2026;
      }

      .cls-2 {
        fill: #112e51;
      }
    </style>
  </defs>
  <path class="cls-2" d="M540.61,502.77c56.27-30.18,125.61-44.97,209.39-27.03-12.2-127.01-119.2-226.33-249.41-226.33-96.28,0-179.86,54.3-221.82,133.95,160.23-15.51,235.01,67.09,261.85,119.41Z"/>
  <path class="cls-1" d="M362.52,709.13c2.22,1.47,4.45,2.9,6.72,4.29,58.73-64.2,195.85-182.39,359.89-110.5,6.65-14.74,11.92-30.24,15.63-46.34-225.05-44.15-339.45,85.67-382.24,152.54Z"/>
  <path class="cls-1" d="M533.48,506.72c-33.97-36.56-115.92-85.79-272.76-79.42-6.96,23.01-10.72,47.41-10.72,72.69,0,85.91,43.24,161.71,109.13,206.86,25.74-53.17,81.7-147.29,174.35-200.13Z"/>
  <path class="cls-1" d="M373.49,715.99c37.26,21.97,80.7,34.6,127.09,34.6,75.47,0,143.15-33.37,189.09-86.15-151.42-59.23-262.91,6.68-316.18,51.56Z"/>
</svg>